<svg width="100" height="81" viewBox="0 0 100 81" fill="none" xmlns="http://www.w3.org/2000/svg">
<path d="M91.032 0H8.46794C6.33368 0.00240381 4.28753 0.851299 2.77838 2.36045C1.26924 3.86959 0.420342 5.91575 0.417938 8.05V71.6244C0.420561 73.9775 1.35651 76.2336 3.02045 77.8975C4.68439 79.5614 6.94042 80.4974 9.29358 80.5H90.2064C92.5596 80.4974 94.8156 79.5614 96.4795 77.8975C98.1435 76.2336 99.0794 73.9775 99.082 71.6244V8.05C99.0796 5.91575 98.2307 3.86959 96.7216 2.36045C95.2124 0.851299 93.1663 0.00240381 91.032 0ZM96.1923 8.05V17.696H40.5755L47.5786 2.88974H91.032C92.4002 2.89127 93.7118 3.43543 94.6792 4.40284C95.6466 5.37024 96.1908 6.68188 96.1923 8.05ZM8.46794 2.88974H44.3833L37.3786 17.696H3.30768V8.05C3.30921 6.68188 3.85337 5.37024 4.82078 4.40284C5.78818 3.43543 7.09982 2.89127 8.46794 2.88974ZM20.8104 62.2946L14.3605 55.7217L19.2401 49.6293L27.0762 54.4865C27.3362 54.6478 27.6406 54.7223 27.9457 54.6995C28.2508 54.6766 28.5407 54.5575 28.7738 54.3594C33.0158 50.7519 38.1166 48.2994 43.5833 47.239C43.8839 47.181 44.1584 47.0289 44.3672 46.8049C44.5759 46.5809 44.7082 46.2964 44.745 45.9923L45.8455 36.8484H53.6544L54.7559 45.9956C54.7923 46.2996 54.9244 46.5842 55.133 46.8083C55.3417 47.0323 55.6161 47.1843 55.9167 47.2424C61.3834 48.3027 66.4842 50.7552 70.7262 54.3627C70.9594 54.5606 71.2493 54.6795 71.5543 54.7024C71.8593 54.7252 72.1637 54.6508 72.4237 54.4898L80.2599 49.6326L85.1394 55.725L78.6895 62.2946C78.4755 62.5128 78.3362 62.7932 78.2917 63.0956C78.2472 63.398 78.2998 63.7067 78.4418 63.9773C80.6633 68.1925 81.9181 72.8496 82.1151 77.6103H72.0646C71.6994 71.9403 69.1896 66.6221 65.0449 62.7358C60.9003 58.8495 55.4317 56.6866 49.75 56.6866C44.0683 56.6866 38.5997 58.8495 34.4551 62.7358C30.3104 66.6221 27.8006 71.9403 27.4354 77.6103H17.3849C17.5826 72.8506 18.8377 68.1947 21.059 63.9806C21.2017 63.7095 21.2546 63.4001 21.2099 63.097C21.1652 62.794 21.0253 62.5129 20.8104 62.2946ZM69.1674 77.6103H30.3326C30.6945 72.7079 32.8973 68.1239 36.4989 64.7784C40.1005 61.4328 44.8343 59.5735 49.75 59.5735C54.6657 59.5735 59.3994 61.4328 63.001 64.7784C66.6026 68.1239 68.8055 72.7079 69.1674 77.6103ZM90.2064 77.6103H85.0049C84.8219 72.7392 83.6201 67.9606 81.4769 63.5826L88.0994 56.8338C88.3469 56.5817 88.4934 56.2477 88.5112 55.8948C88.529 55.542 88.4169 55.1949 88.196 54.9192L81.7147 46.8279C81.4941 46.552 81.18 46.3665 80.8319 46.3066C80.4838 46.2466 80.1258 46.3164 79.8256 46.5026L71.7814 51.4886C67.6022 48.1467 62.7179 45.7986 57.4978 44.6218L56.37 35.2309C56.3276 34.8801 56.1582 34.557 55.8938 34.3226C55.6294 34.0882 55.2884 33.9587 54.935 33.9586H44.565C44.2116 33.9587 43.8705 34.0882 43.6061 34.3226C43.3418 34.557 43.1724 34.8801 43.13 35.2309L41.9997 44.6209C36.7796 45.7977 31.8953 48.1459 27.7161 51.4878L19.6719 46.5018C19.3717 46.3155 19.0137 46.2458 18.6656 46.3058C18.3175 46.3657 18.0034 46.5512 17.7828 46.8271L11.3015 54.9183C11.0806 55.194 10.9685 55.5412 10.9863 55.894C11.0041 56.2469 11.1506 56.5809 11.3981 56.833L18.0206 63.5818C15.8782 67.9603 14.6772 72.7391 14.4951 77.6103H9.29358C7.70656 77.6085 6.18504 76.9773 5.06284 75.8551C3.94065 74.7329 3.30943 73.2114 3.30768 71.6244V20.5857H96.1923V71.6244C96.1906 73.2114 95.5593 74.7329 94.4371 75.8551C93.3149 76.9773 91.7934 77.6085 90.2064 77.6103Z" fill="#FA6444"/>
<path d="M14.718 15.0398C15.657 15.0398 16.5749 14.7614 17.3556 14.2397C18.1363 13.7181 18.7448 12.9766 19.1041 12.1091C19.4634 11.2416 19.5574 10.2871 19.3743 9.36618C19.1911 8.44527 18.7389 7.59936 18.075 6.93542C17.4111 6.27148 16.5651 5.81933 15.6442 5.63614C14.7233 5.45296 13.7688 5.54698 12.9013 5.9063C12.0338 6.26562 11.2924 6.87411 10.7707 7.65483C10.249 8.43554 9.97061 9.35341 9.97061 10.2924C9.97192 11.5511 10.4725 12.7578 11.3626 13.6479C12.2526 14.5379 13.4594 15.0385 14.718 15.0398ZM14.718 8.43467C15.0855 8.43467 15.4446 8.54362 15.7501 8.74775C16.0556 8.95187 16.2937 9.242 16.4343 9.58145C16.5749 9.9209 16.6117 10.2944 16.54 10.6548C16.4684 11.0151 16.2914 11.3461 16.0316 11.6059C15.7718 11.8657 15.4408 12.0427 15.0805 12.1144C14.7201 12.186 14.3466 12.1492 14.0071 12.0086C13.6677 11.868 13.3776 11.6299 13.1734 11.3244C12.9693 11.0189 12.8604 10.6598 12.8604 10.2924C12.861 9.79987 13.0569 9.32774 13.4052 8.9795C13.7534 8.63125 14.2256 8.43532 14.718 8.43467ZM27.9745 15.0398C28.9135 15.0398 29.8314 14.7614 30.6121 14.2397C31.3928 13.7181 32.0013 12.9766 32.3606 12.1091C32.7199 11.2416 32.8139 10.2871 32.6308 9.36618C32.4476 8.44527 31.9954 7.59936 31.3315 6.93542C30.6675 6.27148 29.8216 5.81933 28.9007 5.63614C27.9798 5.45296 27.0253 5.54698 26.1578 5.9063C25.2903 6.26562 24.5488 6.87411 24.0272 7.65483C23.5055 8.43554 23.2271 9.35341 23.2271 10.2924C23.2284 11.5511 23.729 12.7578 24.619 13.6479C25.5091 14.5379 26.7158 15.0385 27.9745 15.0398ZM27.9745 8.43467C28.342 8.43467 28.7011 8.54362 29.0066 8.74775C29.3121 8.95187 29.5502 9.242 29.6908 9.58145C29.8314 9.9209 29.8682 10.2944 29.7965 10.6548C29.7249 11.0151 29.5479 11.3461 29.2881 11.6059C29.0283 11.8657 28.6973 12.0427 28.337 12.1144C27.9766 12.186 27.6031 12.1492 27.2636 12.0086C26.9242 11.868 26.6341 11.6299 26.4299 11.3244C26.2258 11.0189 26.1168 10.6598 26.1168 10.2924C26.1175 9.79987 26.3134 9.32774 26.6617 8.9795C27.0099 8.63125 27.482 8.43532 27.9745 8.43467ZM52.6579 11.7372H89.6012C89.9844 11.7372 90.3519 11.585 90.6229 11.314C90.8939 11.0431 91.0461 10.6756 91.0461 10.2924C91.0461 9.90916 90.8939 9.54165 90.6229 9.27068C90.3519 8.99972 89.9844 8.84749 89.6012 8.84749H52.6579C52.2747 8.84749 51.9072 8.99972 51.6362 9.27068C51.3653 9.54165 51.213 9.90916 51.213 10.2924C51.213 10.6756 51.3653 11.0431 51.6362 11.314C51.9072 11.585 52.2747 11.7372 52.6579 11.7372Z" fill="#FA6444"/>
</svg>
